<svg width="203" height="298" viewBox="0 0 203 298" fill="none" xmlns="http://www.w3.org/2000/svg">
<path d="M201.021 223.636C197.145 213.104 175.808 212.114 166.551 214.799C159.972 216.713 146.103 218.871 138.695 219.955L138.215 219.499C139.175 219.215 139.199 218.515 139.08 217.478C139.011 216.111 139.031 214.742 139.139 213.378C143.679 214.789 147.721 211.452 147.721 211.452C153.055 209.081 151.621 198.935 152.64 196.161C153.405 194.087 154.228 181.861 154.596 175.773H154.673L154.715 173.728C154.768 172.845 154.792 172.328 154.792 172.328C154.792 172.328 155.314 157.428 156.333 154.411C157.281 151.637 158.052 137.662 158.17 135.445V135.155L158.093 133.863C158.146 132.921 158.17 131.872 158.164 130.769C158.164 125.702 157.636 119.318 157.571 118.287V117.748C157.613 115.585 157.34 104.748 148.124 100.655C144.724 99.138 140.644 97.33 136.691 95.57C135.672 86.77 133.342 78.015 133.544 69.148C133.544 67.814 133.663 66.481 133.793 65.153C133.793 65.538 133.751 65.929 133.746 66.338V68.922C134.096 57.833 138.286 46.685 137.895 35.833C137.859 36.894 137.782 37.961 137.682 39.028C137.887 35.3572 137.502 31.6773 136.544 28.128C136.283 26.8385 135.633 25.6598 134.683 24.75C133.714 24.077 132.602 23.6369 131.435 23.464C128.63 22.7463 125.781 22.2158 122.906 21.876C122.469 20.5388 121.821 19.2801 120.986 18.148C114.976 9.89801 106.074 2.14801 95.548 0.368007C90.267 -0.520993 84.1919 0.220006 80.6009 3.99501C80.2258 4.32671 79.8734 4.68318 79.546 5.06201C77.614 7.36801 76.7839 10.396 74.8049 12.696C74.6749 12.85 74.526 12.996 74.384 13.141C70.508 16.608 64.468 17.331 60.16 20.441C59.4005 21.0008 58.6887 21.6226 58.032 22.3C56.2956 24.0204 54.7386 25.9128 53.3849 27.948C51.4469 30.674 49.4549 33.513 48.8389 36.767C47.5999 43.287 52.039 49.467 52.863 56.029C54.7 70.71 38.4549 83.737 41.5309 98.222C42.3523 101.779 44.1646 105.031 46.758 107.6C40.422 113.337 35.029 118.9 35.029 118.9V119.232H34.029L34.129 120.417H34.029L34.5799 126.848L34.029 136.212V137.095H34.065C34.249 140.527 34.9779 152.866 35.8429 155.468C36.8619 158.485 37.378 173.385 37.378 173.385C37.378 173.385 38.504 194.443 39.535 197.229C40.566 200.015 39.1019 210.129 44.4539 212.52C46.0197 213.721 47.8736 214.49 49.8299 214.749C49.5569 216.966 49.7299 218.572 50.6119 219.076C50.99 219.298 51.4184 219.421 51.8569 219.432C51.4939 219.971 51.171 220.535 50.8909 221.121C48.7667 220.899 46.6796 220.407 44.68 219.657C38.931 217.286 19.8519 211.957 14.3109 215.704C8.76994 219.451 -4.56606 222.858 1.59194 237.959C7.74994 253.06 10.6189 253.44 10.6189 253.44C12.5144 254.816 14.1771 256.487 15.5439 258.389C17.3929 261.169 34.622 267.528 38.931 267.528C40.7623 267.5 42.5935 267.591 44.413 267.801C44.413 267.801 39.7369 271.901 40.3589 274.285C40.9809 276.669 38.9369 295.74 38.9369 295.74C38.9369 295.74 43.6779 300.517 45.7049 294.252L45.776 294.347C46.155 294.863 48.206 297.192 52.064 294.252C53.643 293.054 55.3203 291.991 57.0779 291.075L75.759 288.432C77.7067 288.31 79.6597 288.296 81.6089 288.39C84.5719 288.633 87.4819 286.879 89.309 285.521C93.179 286.991 97.53 288.597 99.598 289.184C103.798 290.369 123.08 295.543 127.59 293.925C128.528 293.552 129.361 292.958 130.02 292.194L134.32 292.33L132.305 292.73C132.305 292.73 136.229 292.795 141.563 292.866L141.338 292.996L148.029 292.937C157.82 293.026 168.82 293.056 170.266 292.73C172.53 292.23 184.295 292.582 187.766 292.73H188.732C188.732 292.73 201.658 290.152 196.324 277.036C192.224 266.96 179.616 264.036 174.024 263.226C175.601 262.912 176.958 262.669 177.859 262.526C181.765 261.933 189.351 258.377 189.968 257.162C190.585 255.947 196.944 252.421 198.586 250.411C200.228 248.401 204.915 234.168 201.021 223.636ZM93.9529 253.11L93.319 253.317L92.892 253.459L92.074 254.265C91.422 253.826 90.7229 253.365 89.9939 252.89C91.28 252.968 92.6019 253.045 93.9529 253.11Z" fill="url(#paint0_linear_1_611)"/>
<path d="M131.743 190.619C131.743 190.619 140.811 214.326 145.967 211.956C151.123 209.586 149.725 199.51 150.708 196.748C151.691 193.986 152.782 173.041 152.782 173.041C152.782 173.041 153.282 158.224 154.264 155.225C155.177 152.469 155.918 138.571 156.042 136.384V136.094L155.064 118.906L149.528 117.525L136.693 122.264L134.915 132.417L134.222 136.382L133.922 138.071L131.743 190.619Z" fill="#BE6F72"/>
<path opacity="0.1" d="M134.73 186.647C134.73 186.647 143.383 193.73 145.991 194.347C148.599 194.964 150.199 200.493 150.199 200.493" fill="black"/>
<path d="M60.8279 191.656C60.8279 191.656 51.7599 215.363 46.6039 212.993C41.4479 210.623 42.846 200.547 41.863 197.785C40.88 195.023 39.7889 174.078 39.7889 174.078C39.7889 174.078 39.2889 159.261 38.3069 156.262C37.3939 153.506 36.6529 139.608 36.5289 137.421V137.131L37.5129 119.943L43.049 118.562L55.887 123.303L57.665 133.456L58.358 137.421L58.658 139.11L60.8279 191.656Z" fill="#BE6F72"/>
<path d="M119.877 64.7861H99.637V96.3351H119.877V64.7861Z" fill="#3E373A"/>
<path opacity="0.1" d="M119.877 64.7861H99.637V96.3351H119.877V64.7861Z" fill="black"/>
<path d="M57.272 215.268C57.272 215.268 50.355 222.868 52.922 224.253C55.489 225.638 72.089 251.516 72.089 251.516C72.089 251.516 126.616 258.231 136.899 248.155C147.182 238.079 146.975 220.08 146.975 220.08C146.975 220.08 138.713 221.858 137.812 220.892C136.911 219.926 131.962 215.267 131.962 215.267C131.962 215.267 62.013 211.024 57.272 215.268Z" fill="#4B4B5B"/>
<path opacity="0.02" d="M57.272 215.268C57.272 215.268 50.355 222.868 52.922 224.253C55.489 225.638 72.089 251.516 72.089 251.516C72.089 251.516 126.616 258.231 136.899 248.155C147.182 238.079 146.975 220.08 146.975 220.08C146.975 220.08 138.713 221.858 137.812 220.892C136.911 219.926 131.962 215.267 131.962 215.267C131.962 215.267 62.013 211.024 57.272 215.268Z" fill="black"/>
<path d="M155.432 119.152L137.652 133.377L132.276 133.768L130.302 133.91L97.153 136.34L62.777 133.827L57.662 133.454L51.142 132.98L37.512 119.94C43.2312 113.85 49.2732 108.071 55.612 102.628C58.943 99.872 62.09 97.644 64.384 96.766L64.775 96.63C66.2178 96.0673 67.5061 95.1692 68.533 94.01C75.207 87.129 81.376 70.149 81.376 70.149C81.376 70.149 110.815 54.941 107.258 74.89C103.701 94.839 120.493 89.909 120.493 89.909L126.029 92.434L128.216 93.434L133.793 95.988L146.376 101.761C156.252 106.309 155.432 119.152 155.432 119.152Z" fill="#BE6F72"/>
<path opacity="0.1" d="M95.773 86.395C110.395 86.395 122.248 74.5417 122.248 59.92C122.248 45.2983 110.395 33.445 95.773 33.445C81.1512 33.445 69.298 45.2983 69.298 59.92C69.298 74.5417 81.1512 86.395 95.773 86.395Z" fill="black"/>
<path opacity="0.1" d="M155.474 138.012H36.528V137.722L37.512 120.534C43.2311 114.444 49.2732 108.665 55.6119 103.222L130.29 100.259L133.763 96.596L146.346 102.369C156.226 106.909 155.432 119.752 155.432 119.752C155.432 119.752 156.783 134.635 155.474 138.012Z" fill="black"/>
<path d="M155.474 137.42H36.528V137.13L37.512 119.942C43.2311 113.852 49.2732 108.073 55.6119 102.63L130.29 99.667L133.763 96.004L146.346 101.777C156.226 106.317 155.432 119.16 155.432 119.16C155.432 119.16 156.783 134.043 155.474 137.42Z" fill="#E7C7CA"/>
<path opacity="0.1" d="M76.708 89.2221C76.708 89.2221 95.472 113.131 120.466 88.7301C145.46 64.3291 123.234 143.156 123.234 143.156L69.3 149.556L76.708 89.2221Z" fill="black"/>
<path d="M76.708 90.407C76.708 90.407 95.472 114.316 120.466 89.915C145.46 65.514 123.234 144.341 123.234 144.341L69.3 150.741L76.708 90.407Z" fill="#E7C7CA"/>
<path opacity="0.1" d="M128.186 94.604L130.171 124.884L132.299 134.96L133.923 142.66C133.923 142.66 138.072 201.928 136.887 204.892C135.702 207.856 137.48 210.226 137.729 211.803C137.978 213.38 137.48 217.339 137.676 219.117C137.872 220.895 137.676 221.683 133.136 221.049C128.596 220.415 122.266 219.312 122.266 219.312C122.266 219.312 106.266 220.497 100.734 218.524C95.2019 216.551 84.7339 216.544 84.7339 216.544C84.7339 216.544 68.927 216.944 63.794 216.344C58.661 215.744 55.8879 222.668 52.5329 220.688C49.1779 218.708 56.4799 199.553 58.8509 194.017C61.2219 188.481 55.6919 174.458 55.6919 174.458L62.8039 135.003L64.3869 126.059V97.953L64.7779 97.817C66.2208 97.2544 67.509 96.3563 68.5359 95.197L70.3139 123.492L126.026 125.472V93.626" fill="black"/>
<path d="M128.186 93.419L130.171 123.699L132.299 133.775L133.923 141.475C133.923 141.475 138.072 200.743 136.887 203.707C135.702 206.671 137.48 209.041 137.729 210.618C137.978 212.195 137.48 216.154 137.676 217.932C137.872 219.71 137.676 220.498 133.136 219.864C128.596 219.23 122.266 218.127 122.266 218.127C122.266 218.127 106.266 219.312 100.734 217.339C95.2019 215.366 84.7339 215.359 84.7339 215.359C84.7339 215.359 68.927 215.759 63.794 215.159C58.661 214.559 55.8879 221.483 52.5329 219.503C49.1779 217.523 56.4799 198.368 58.8509 192.832C61.2219 187.296 55.6919 173.273 55.6919 173.273L62.8039 133.818L64.3869 124.874V96.768L64.7779 96.632C66.2208 96.0693 67.509 95.1712 68.5359 94.012L70.3139 122.307L126.026 124.287V92.441" fill="#E7C7CA"/>
<path opacity="0.1" d="M134.594 30.227C134.347 28.9572 133.728 27.7895 132.816 26.872C131.888 26.2057 130.816 25.7672 129.687 25.592C126.984 24.881 124.235 24.3541 121.461 24.015C121.065 22.6991 120.465 21.4533 119.683 20.323C113.875 12.123 105.283 4.38597 95.17 2.63697C89.877 1.71797 83.743 2.54197 80.353 6.71497C78.492 9.00897 77.692 12.049 75.813 14.301C72.192 18.675 65.654 19.214 61.091 22.601C58.655 24.379 56.891 26.957 55.164 29.458C53.297 32.167 51.377 34.988 50.784 38.224C49.599 44.69 53.872 50.854 54.66 57.38C56.438 71.98 40.791 84.928 43.749 99.33C45.474 107.73 53.232 113.643 61.257 116.642C64.084 117.703 67.314 118.758 68.636 121.472C69.229 122.657 69.329 124.026 69.886 125.224C71.759 129.219 77.917 129.373 81.224 126.463C84.531 123.553 85.574 118.847 85.965 114.455C87.553 95.276 79.872 76.328 80.765 57.101C81.032 51.287 82.665 44.69 87.877 42.059C94.888 38.503 103.322 44.43 111.039 43.298C114.691 52.1831 115.466 61.9893 113.256 71.338C112.029 76.453 109.907 81.414 109.756 86.688C109.525 94.719 113.856 102.056 117.603 109.157C118.407 110.485 118.944 111.957 119.185 113.49C119.244 115.046 118.955 116.595 118.338 118.024C116.222 123.724 112.571 129.006 112.156 135.07C112.035 135.778 112.194 136.505 112.601 137.097C113.018 137.492 113.557 137.735 114.13 137.785C120.53 138.885 126.067 133.209 129.19 127.514C132.672 121.223 134.702 114.233 135.129 107.055C135.775 94.988 131.448 83.117 131.715 71.038C132.024 57.301 138.224 43.473 134.594 30.227Z" fill="black"/>
<path d="M135.186 29.6341C134.939 28.3643 134.32 27.1966 133.408 26.2791C132.48 25.6128 131.408 25.1743 130.279 24.9991C127.576 24.2881 124.827 23.7612 122.053 23.4221C121.657 22.1062 121.057 20.8604 120.275 19.7301C114.467 11.5301 105.875 3.79307 95.762 2.04407C90.469 1.12507 84.335 1.94907 80.945 6.12207C79.084 8.41607 78.284 11.4561 76.405 13.7081C72.784 18.0821 66.246 18.6211 61.683 22.0081C59.247 23.7861 57.483 26.3641 55.756 28.8651C53.889 31.5741 51.969 34.3951 51.376 37.6311C50.191 44.0971 54.464 50.2611 55.252 56.7871C57.03 71.3871 41.383 84.3351 44.341 98.7371C46.066 107.137 53.8239 113.05 61.8489 116.049C64.6759 117.11 67.906 118.165 69.228 120.879C69.821 122.064 69.921 123.433 70.478 124.631C72.351 128.626 78.509 128.78 81.816 125.87C85.123 122.96 86.166 118.254 86.557 113.862C88.145 94.6831 80.4639 75.7351 81.3569 56.5081C81.6239 50.6941 83.2569 44.0971 88.4689 41.4661C95.4799 37.9101 103.914 43.8371 111.631 42.7051C115.283 51.5902 116.058 61.3964 113.848 70.7451C112.621 75.8601 110.499 80.8211 110.348 86.0951C110.117 94.1261 114.448 101.463 118.195 108.564C118.999 109.892 119.536 111.364 119.777 112.897C119.836 114.453 119.547 116.002 118.93 117.431C116.814 123.131 113.163 128.413 112.748 134.477C112.626 135.185 112.786 135.912 113.193 136.504C113.61 136.899 114.149 137.142 114.722 137.192C121.122 138.292 126.659 132.616 129.782 126.921C133.264 120.63 135.294 113.64 135.721 106.462C136.367 94.3951 132.04 82.5241 132.307 70.4451C132.616 56.7081 138.816 42.8801 135.186 29.6341Z" fill="#3E373A"/>
<path d="M122.094 292.056L145.606 292.809L142.234 275.372L124.222 277.085L122.094 292.056Z" fill="#C3C7D9"/>
<path d="M194.946 250.728C193.363 252.702 187.246 256.258 186.646 257.443C186.046 258.628 178.746 262.184 174.988 262.777C171.23 263.37 159.383 265.942 157.208 267.323C155.649 268.323 143.138 271.472 134.917 273.223C132.69 273.75 130.437 274.155 128.166 274.438C124.61 274.638 85.694 261.399 85.694 261.399L93.194 253.699L93.609 253.557C95.731 252.84 105.534 249.527 110.975 247.95C117.103 246.172 124.216 238.864 124.216 238.864C124.216 238.864 134.683 235.308 136.07 234.911C137.457 234.514 132.514 221.084 132.514 221.084C132.514 221.084 155.232 217.931 164.122 215.258C173.012 212.585 193.561 213.575 197.312 224.047C201.063 234.519 196.552 248.756 194.946 250.728Z" fill="#4B4B5B"/>
<path d="M91.423 284.114C91.423 284.114 86.883 288.855 82.337 288.464C77.791 288.073 61.895 289.649 61.895 289.649C59.0143 290.798 56.3169 292.362 53.8879 294.29C50.1719 297.218 48.1979 294.883 47.8309 294.385L47.7659 294.29C45.7859 300.519 41.246 295.772 41.246 295.772C41.246 295.772 43.2199 276.806 42.6149 274.435C42.0099 272.064 46.5209 267.993 46.5209 267.993L51.8549 266.636L65.3679 263.175L84.731 269.89L91.423 284.114Z" fill="#E7C7CA"/>
<path opacity="0.1" d="M51.8309 266.636L47.8309 294.385L47.7659 294.29C45.7859 300.519 41.246 295.772 41.246 295.772C41.246 295.772 43.2199 276.806 42.6149 274.435C42.0099 272.064 46.5209 267.993 46.5209 267.993L51.8309 266.636Z" fill="black"/>
<path opacity="0.1" d="M79.7939 187.702C79.7939 187.702 90.261 191.258 99.353 187.702H79.7939Z" fill="black"/>
<path opacity="0.1" d="M115.527 194.423C115.527 194.423 119.871 196.592 123.227 194.423H115.527Z" fill="black"/>
<path opacity="0.1" d="M115.527 199.568C115.527 199.568 122.835 200.546 124.222 198.568L115.527 199.568Z" fill="black"/>
<path opacity="0.1" d="M113.156 210.623C113.156 210.623 126.882 208.845 130.29 206.474L113.156 210.623Z" fill="black"/>
<path opacity="0.1" d="M71.271 206.473C71.271 206.473 78.971 210.817 84.707 210.622L71.271 206.473Z" fill="black"/>
<path opacity="0.1" d="M134.913 273.22C132.686 273.747 130.433 274.152 128.162 274.435C124.606 274.635 85.6899 261.396 85.6899 261.396L93.1899 253.696L93.605 253.554C94.79 254.39 95.762 255.107 96.456 255.654C99.722 258.226 102.875 254.866 104.056 254.866C105.237 254.866 115.513 263.359 115.513 263.359C115.513 263.359 124.996 265.534 126.578 267.508C128.16 269.482 133.69 269.09 134.678 270.471C134.998 271.35 135.079 272.299 134.913 273.22Z" fill="black"/>
<path d="M61.895 221.883C61.895 221.883 52.305 222.434 46.776 220.105C41.247 217.776 22.876 212.405 17.539 216.176C12.202 219.947 -0.639001 223.288 5.288 238.307C11.215 253.326 13.983 253.717 13.983 253.717C15.8165 255.092 17.4173 256.753 18.724 258.636C20.502 261.404 37.097 267.722 41.246 267.722C45.395 267.722 52.703 267.722 62.974 274.834C73.245 281.946 82.533 282.74 82.533 282.74C82.533 282.74 95.572 288.074 99.633 289.26C103.694 290.446 122.244 295.578 126.594 294.001C130.944 292.424 133.706 282.538 133.706 282.538C133.706 282.538 135.68 273.648 134.69 272.267C133.7 270.886 128.17 271.277 126.59 269.304C125.01 267.331 115.525 265.155 115.525 265.155C115.525 265.155 105.278 256.655 104.092 256.655C102.906 256.655 99.754 260.01 96.492 257.443C89.9869 252.625 83.1525 248.268 76.039 244.404C68.533 240.453 61.895 221.883 61.895 221.883Z" fill="#4B4B5B"/>
<path opacity="0.1" d="M42.615 227.613C44.3224 227.264 46.0874 227.314 47.7723 227.759C49.4572 228.204 51.0166 229.032 52.329 230.179C57.07 234.132 73.029 242.068 73.029 242.068" fill="black"/>
<path opacity="0.1" d="M161.163 227.365C161.163 227.365 140.022 230.565 136.075 234.91L161.163 227.365Z" fill="black"/>
<path d="M185.463 292.809H184.533C181.19 292.69 169.864 292.335 167.683 292.809C165.117 293.402 131.132 292.809 131.132 292.809L137.776 291.428C137.776 291.428 135.31 282.787 136.876 282.07C136.876 282.07 127.986 276.214 134.689 272.261C138.923 269.898 143.85 269.089 148.617 269.973L165.443 264.273L168.673 263.173C168.673 263.173 187.639 264.163 192.773 277.202C197.907 290.241 185.463 292.809 185.463 292.809Z" fill="#E7C7CA"/>
<path opacity="0.1" d="M185.464 292.808H184.534C190.052 288.256 202.534 274.399 165.444 264.3L168.674 263.2C168.674 263.2 187.64 264.19 192.774 277.229C197.908 290.268 185.464 292.808 185.464 292.808Z" fill="black"/>
<path d="M150.596 277.446C151.169 277.446 151.633 276.982 151.633 276.409C151.633 275.836 151.169 275.372 150.596 275.372C150.023 275.372 149.559 275.836 149.559 276.409C149.559 276.982 150.023 277.446 150.596 277.446Z" fill="#4B4B5B"/>
<path d="M144.568 279.159C145.141 279.159 145.605 278.695 145.605 278.122C145.605 277.549 145.141 277.085 144.568 277.085C143.995 277.085 143.531 277.549 143.531 278.122C143.531 278.695 143.995 279.159 144.568 279.159Z" fill="#4B4B5B"/>
<g opacity="0.1">
<path opacity="0.1" d="M115.201 58.9431C115.431 52.4241 114.272 45.9307 111.801 39.8941C104.101 41.0441 95.656 35.0991 88.639 38.6551C83.447 41.2871 81.817 47.8831 81.527 53.6971C81.456 55.2321 81.444 56.7671 81.474 58.3021C81.474 57.7571 81.474 57.2021 81.527 56.6601C81.8 50.8461 83.427 44.2491 88.639 41.6181C95.656 38.0621 104.084 43.9891 111.801 42.8571C113.894 47.9702 115.046 53.4194 115.201 58.9421V58.9431Z" fill="black"/>
<path opacity="0.1" d="M55.494 57.857C55.5955 56.5656 55.5697 55.2674 55.417 53.981C54.789 48.765 51.938 43.781 51.422 38.696C50.758 44.83 54.664 50.722 55.417 56.945C55.4803 57.2447 55.5062 57.551 55.494 57.857Z" fill="black"/>
<path opacity="0.1" d="M86.722 111.045C86.355 115.445 85.322 120.145 81.981 123.059C78.64 125.973 72.498 125.815 70.643 121.82C70.05 120.635 69.961 119.254 69.386 118.068C68.07 115.354 64.834 114.299 62.007 113.238C53.976 110.238 46.23 104.348 44.507 95.9261C44.353 95.1632 44.2481 94.3913 44.193 93.6151C44.0472 95.3794 44.1529 97.1555 44.507 98.8901C46.232 107.29 53.99 113.197 62.007 116.202C64.834 117.263 68.07 118.318 69.386 121.032C69.979 122.217 70.079 123.586 70.643 124.784C72.51 128.779 78.668 128.933 81.981 126.023C85.294 123.113 86.325 118.407 86.722 114.009C86.9026 111.694 86.964 109.372 86.906 107.051C86.905 108.396 86.829 109.723 86.722 111.045Z" fill="black"/>
<path opacity="0.1" d="M132.501 67.6311V70.1971C132.833 59.1731 136.875 48.0901 136.478 37.2971C136.171 47.2781 132.726 57.4871 132.501 67.6311Z" fill="black"/>
<path opacity="0.1" d="M119.782 112.224C119.928 111.521 119.974 110.8 119.918 110.084C119.68 108.55 119.142 107.078 118.336 105.751C114.91 99.2321 111.004 92.5581 110.542 85.3211C110.542 85.6291 110.5 85.9141 110.495 86.2461C110.258 94.2711 114.595 101.614 118.336 108.715C118.973 109.815 119.459 110.995 119.782 112.224Z" fill="black"/>
<path opacity="0.1" d="M135.909 103.647C135.467 110.827 133.423 117.818 129.929 124.106C126.8 129.806 121.27 135.474 114.863 134.377C114.289 134.328 113.749 134.083 113.334 133.684C113.214 133.548 113.119 133.392 113.055 133.222C112.984 133.684 112.925 134.153 112.889 134.622C112.767 135.328 112.926 136.054 113.334 136.643C113.749 137.042 114.289 137.287 114.863 137.336C121.27 138.436 126.8 132.76 129.929 127.065C133.423 120.777 135.467 113.786 135.909 106.606C135.98 105.219 135.986 103.838 135.945 102.457C135.933 102.859 135.933 103.25 135.909 103.647Z" fill="black"/>
</g>
<path opacity="0.1" d="M136.875 282.07C136.875 282.07 151.875 288.364 161.768 274.436" stroke="black" stroke-miterlimit="10"/>
<path opacity="0.1" d="M139.827 293.07C139.827 293.07 152.078 285.104 167.683 292.809" stroke="black" stroke-miterlimit="10"/>
<path opacity="0.1" d="M57.8229 291.262C57.8229 291.262 62.9669 279.662 76.7059 288.506" stroke="black" stroke-miterlimit="10"/>
<path opacity="0.1" d="M41.145 119.645L51.635 110.162C51.635 110.162 92.311 107.495 93.994 121.322C93.994 121.322 108.414 104.928 138.741 108.579L151.573 118.797L116.108 134.364L81.643 146.318L56.255 134.954L41.145 119.645Z" fill="black"/>
<path d="M41.145 120.237L51.635 110.754C51.635 110.754 92.311 108.087 93.994 121.914C93.994 121.914 108.414 105.52 138.741 109.171L151.573 119.389L116.108 134.956L81.643 146.91L56.255 135.546L41.145 120.237Z" fill="#D5D6DB"/>
<path opacity="0.1" d="M36.505 121.423L41.146 176.94L90.339 179.411L88.205 124.131L88.163 123.2L36.505 121.423Z" fill="black"/>
<path d="M36.505 120.237L41.146 175.754L90.339 178.225L88.205 122.945L88.163 122.015L36.505 120.237Z" fill="#AFDFC7"/>
<path opacity="0.1" d="M153.827 120.237L103.081 127.847V183.613L152.671 176.447L153.827 120.237Z" fill="black"/>
<path d="M153.827 119.052L103.081 126.662V182.428L152.671 175.262L153.827 119.052Z" fill="#AFDFC7"/>
<path opacity="0.3" d="M141.858 132.66L114.446 135.706L115.046 145.047L141.846 142.119L141.858 132.66Z" fill="white"/>
<path d="M43.812 205.482L46.604 212.991C46.604 212.991 50.7531 216.547 55.2931 214.769C59.8331 212.991 63.793 212.108 65.766 210.377C67.739 208.646 70.507 199.952 70.507 199.952C70.507 199.952 73.275 190.469 76.037 188.098C78.799 185.727 86.113 153.065 76.037 156.259C65.961 159.453 58.256 189.088 58.256 189.088C57.1434 190.379 55.5996 191.222 53.912 191.459C51.346 191.659 46.212 191.059 45.217 193.237C44.222 195.415 40.849 201.139 43.812 205.482Z" fill="#BE6F72"/>
<path opacity="0.1" d="M103.08 127.841C100.482 128.426 97.7829 128.396 95.1988 127.752C92.6147 127.107 90.2171 125.868 88.1979 124.131L90.338 179.405C91.9932 181.042 94.0049 182.274 96.2157 183.004C98.4265 183.734 100.776 183.943 103.081 183.613L103.08 127.841Z" fill="black"/>
<path d="M103.08 126.656C100.482 127.241 97.7829 127.211 95.1988 126.567C92.6147 125.922 90.2171 124.682 88.1979 122.946L90.338 178.22C91.9932 179.857 94.0049 181.089 96.2157 181.819C98.4265 182.549 100.776 182.758 103.081 182.428L103.08 126.656Z" fill="#AFDFC7"/>
<path opacity="0.1" d="M103.08 126.656C100.482 127.241 97.7829 127.211 95.1988 126.567C92.6147 125.922 90.2171 124.682 88.1979 122.946L90.338 178.22C91.9932 179.857 94.0049 181.089 96.2157 181.819C98.4265 182.549 100.776 182.758 103.081 182.428L103.08 126.656Z" fill="black"/>
<path opacity="0.1" d="M104.266 120.427C104.266 120.427 124.909 114.115 130.291 115.004L104.266 120.427Z" fill="black"/>
<path opacity="0.1" d="M81.1749 117.671C81.1749 117.671 61.1659 112.93 57.8229 114.271L81.1749 117.671Z" fill="black"/>
<path opacity="0.1" d="M117.281 121.215C117.281 121.215 131.081 116.153 136.075 118.56L117.281 121.215Z" fill="black"/>
<path opacity="0.1" d="M110.329 248.186C112.467 246.58 114.742 245.166 117.129 243.96C120.596 242.088 123.961 240.032 127.209 237.802" fill="black"/>
<path opacity="0.1" d="M57.824 187.702C57.824 187.702 49.165 194.785 46.563 195.402C43.961 196.019 42.355 201.548 42.355 201.548" fill="black"/>
<path d="M148.735 204.428L145.973 211.955C145.973 211.955 141.824 215.511 137.278 213.733C132.732 211.955 128.785 211.072 126.805 209.341C124.825 207.61 122.064 198.916 122.064 198.916C122.064 198.916 119.302 189.433 116.534 187.062C113.766 184.691 106.458 152.029 116.534 155.223C126.61 158.417 134.314 188.052 134.314 188.052C135.427 189.343 136.97 190.186 138.658 190.423C141.224 190.623 146.358 190.023 147.353 192.201C148.348 194.379 151.699 200.101 148.735 204.428Z" fill="#BE6F72"/>
<path opacity="0.1" d="M143.893 190.583C143.893 190.583 149.553 194.222 149.529 198.572L143.893 190.583Z" fill="black"/>
<path d="M95.8679 85.097C110.49 85.097 122.343 73.2438 122.343 58.622C122.343 44.0003 110.49 32.147 95.8679 32.147C81.2462 32.147 69.3929 44.0003 69.3929 58.622C69.3929 73.2438 81.2462 85.097 95.8679 85.097Z" fill="#BE6F72"/>
<path d="M79.2429 51.515C82.4549 51.015 85.271 49.144 88.343 48.072C95.212 45.66 102.81 47.313 109.763 49.489C112.43 50.325 115.139 51.267 117.936 51.267C120.733 51.267 123.703 50.123 125.136 47.711C125.726 46.5606 126.029 45.2849 126.021 43.9922C126.013 42.6995 125.693 41.4278 125.089 40.285C123.859 38.0141 122.22 35.9907 120.253 34.317C114.082 28.498 106.435 23.055 97.9819 23.648C94.587 24.0294 91.2797 24.9757 88.197 26.448C84.2566 28.1461 80.4211 30.0779 76.7109 32.233C73.8599 33.887 68.5789 36.097 66.9379 39.12C63.1989 45.932 73.4339 52.428 79.2429 51.515Z" fill="#3E373A"/>
<path opacity="0.1" d="M125.128 45.221C123.7 47.633 120.728 48.777 117.928 48.777C115.129 48.6121 112.372 48.0248 109.749 47.035C102.797 44.86 95.205 43.2 88.329 45.618C85.265 46.691 82.4439 48.581 79.2289 49.056C74.5469 49.791 67.0079 45.713 66.1899 40.527C65.2709 46.519 74.0129 51.652 79.2289 50.834C82.4409 50.334 85.263 48.463 88.329 47.396C95.204 44.978 102.796 46.637 109.749 48.813C112.422 49.649 115.125 50.591 117.928 50.555C120.731 50.519 123.695 49.417 125.128 46.999C125.869 45.6834 126.16 44.1622 125.958 42.666C125.865 43.5665 125.582 44.4371 125.128 45.22V45.221Z" fill="black"/>
<defs>
<linearGradient id="paint0_linear_1_611" x1="101.266" y1="297.482" x2="101.266" y2="0.0287476" gradientUnits="userSpaceOnUse">
<stop stop-color="#808080" stop-opacity="0.251"/>
<stop offset="0.54" stop-color="#808080" stop-opacity="0.122"/>
<stop offset="1" stop-color="#808080" stop-opacity="0.102"/>
</linearGradient>
</defs>
</svg>
